<svg width="400" height="250" viewBox="0 0 400 250" xmlns="http://www.w3.org/2000/svg">
  <defs>
    <linearGradient id="typingGradient" x1="0%" y1="0%" x2="100%" y2="100%">
      <stop offset="0%" style="stop-color:#06B6D4;stop-opacity:1" />
      <stop offset="100%" style="stop-color:#0891B2;stop-opacity:1" />
    </linearGradient>
  </defs>
  <rect width="400" height="250" fill="url(#typingGradient)"/>
  <rect x="120" y="90" width="160" height="70" rx="8" fill="rgba(255,255,255,0.2)" stroke="white" stroke-width="2"/>
  <rect x="130" y="100" width="12" height="8" rx="2" fill="white"/>
  <rect x="145" y="100" width="12" height="8" rx="2" fill="white"/>
  <rect x="160" y="100" width="12" height="8" rx="2" fill="white"/>
  <rect x="175" y="100" width="12" height="8" rx="2" fill="white"/>
  <rect x="190" y="100" width="12" height="8" rx="2" fill="white"/>
  <rect x="205" y="100" width="12" height="8" rx="2" fill="white"/>
  <rect x="220" y="100" width="12" height="8" rx="2" fill="white"/>
  <rect x="235" y="100" width="12" height="8" rx="2" fill="white"/>
  <rect x="250" y="100" width="12" height="8" rx="2" fill="white"/>
  <rect x="265" y="100" width="12" height="8" rx="2" fill="white"/>
  <rect x="135" y="115" width="18" height="8" rx="2" fill="white"/>
  <rect x="158" y="115" width="12" height="8" rx="2" fill="white"/>
  <rect x="175" y="115" width="12" height="8" rx="2" fill="white"/>
  <rect x="192" y="115" width="12" height="8" rx="2" fill="white"/>
  <rect x="209" y="115" width="12" height="8" rx="2" fill="white"/>
  <rect x="226" y="115" width="12" height="8" rx="2" fill="white"/>
  <rect x="243" y="115" width="12" height="8" rx="2" fill="white"/>
  <rect x="260" y="115" width="12" height="8" rx="2" fill="white"/>
  <rect x="140" y="130" width="24" height="8" rx="2" fill="white"/>
  <rect x="169" y="130" width="12" height="8" rx="2" fill="white"/>
  <rect x="186" y="130" width="12" height="8" rx="2" fill="white"/>
  <rect x="203" y="130" width="12" height="8" rx="2" fill="white"/>
  <rect x="220" y="130" width="12" height="8" rx="2" fill="white"/>
  <rect x="237" y="130" width="12" height="8" rx="2" fill="white"/>
  <rect x="254" y="130" width="18" height="8" rx="2" fill="white"/>
  <rect x="150" y="145" width="100" height="8" rx="2" fill="white"/>
  <text x="200" y="190" font-family="Arial, sans-serif" font-size="36" font-weight="bold" fill="white" text-anchor="middle">⌨️</text>
  <text x="200" y="220" font-family="Arial, sans-serif" font-size="14" fill="rgba(255,255,255,0.9)" text-anchor="middle">Typing Practice</text>
</svg>